<?xml version="1.0" encoding="UTF-8"?>
<svg id="Layer_1" xmlns="http://www.w3.org/2000/svg" viewBox="0 0 1024 1024">
  <g>
    <g>
      <path fill="currentColor" d="M566.42,158.52c-2.86-5.33-10.15-9.7-16.2-9.7h-71.57c-6.05,0-13.37,4.35-16.26,9.66l-271.16,498.22c-2.89,5.31-5.26,12.29-5.26,15.51s2.64,10.04,5.86,15.16l37.99,60.33c3.22,5.12,10.81,9.31,16.86,9.31h535.51c6.05,0,13.42-4.32,16.38-9.59l34.07-60.74c2.96-5.28,5.38-12.23,5.38-15.44s-2.34-10.21-5.2-15.54l-266.41-497.18ZM539.5,172.21c6.05,0,13.3,4.38,16.12,9.74l246.09,467.86c2.82,5.35.17,9.74-5.88,9.74h-437.07c-6.05,0-8.51-4.28-5.47-9.51l20.13-34.59c3.04-5.23,10.48-9.51,16.53-9.51h316.21c6.05,0,11-3.51,11-7.8s-2.34-12.16-5.2-17.49l-213.78-398.74c-2.86-5.33-.25-9.69,5.8-9.69h35.5ZM398.84,585.48c-6.05,0-8.68-4.37-5.83-9.71l76.36-143.53c2.84-5.34,6.25-9.71,7.57-9.71s4.72,4.38,7.54,9.73l75.63,143.49c2.82,5.35.18,9.73-5.87,9.73h-155.4ZM786.56,723.85c-2.78,5.37-10.01,9.77-16.06,9.77h-511.14c-6.05,0-13.59-4.22-16.77-9.37l-27.46-44.62c-3.17-5.15-3.41-13.72-.54-19.05l251.73-466.02c2.88-5.32,7.57-5.32,10.44,0l204.98,381.21c2.87,5.33.26,9.69-5.79,9.69h-72.54c-6.05,0-13.35-4.36-16.22-9.68l-96.77-179.47c-2.87-5.33-8.51-9.68-12.53-9.68s-9.7,4.33-12.63,9.63l-143.36,259.5c-2.93,5.3-5.32,13.14-5.32,17.43s4.95,7.8,11,7.8h470.2c6.05,0,8.72,4.39,5.94,9.77l-17.16,33.1Z"/>
      <path fill="currentColor" d="M417.12,382.5c4.58,2.48,5.98,8.87,3.09,14.19l-94.66,174.71c-2.88,5.32-8.99,7.64-13.58,5.16s-5.98-8.87-3.09-14.19l94.66-174.71c2.88-5.32,8.99-7.64,13.58-5.16Z"/>
    </g>
    <g>
      <rect fill="currentColor" x="303.79" y="819.74" width="70.49" height="22.02" rx="11" ry="11"/>
      <rect fill="currentColor" x="650.84" y="819.74" width="70.49" height="22.02" rx="11" ry="11"/>
      <path fill="currentColor" d="M624.21,841.77c6.05,0,11-4.95,11-11v-.02c0-6.05-4.95-11-11-11h-223.29c-6.05,0-11,4.95-11,11v.02c0,6.05,4.95,11,11,11h76.4c6.05,0,11,2.56,11,5.7s-4.95,5.7-11,5.7h-35.25c-6.05,0-11,4.95-11,11v.02c0,6.05,4.95,11,11,11h140.99c6.05,0,11-4.95,11-11v-.02c0-6.05-4.95-11-11-11h-35.25c-6.05,0-11-2.56-11-5.7s4.95-5.7,11-5.7h76.4Z"/>
    </g>
  </g>
</svg>
